<mxfile host="app.diagrams.net" modified="2023-06-01T00:13:49.825Z" agent="Mozilla/5.0 (Windows NT 10.0; Win64; x64) AppleWebKit/537.36 (KHTML, like Gecko) Chrome/113.0.0.0 Safari/537.36 Edg/113.0.1774.57" etag="rO7yXsw97ctsil9dq9nI" version="21.3.6" type="gitlab">
  <diagram name="Page-1" id="FwRCn3BswmMa86CRdXL0">
    <mxGraphModel dx="997" dy="468" grid="1" gridSize="10" guides="1" tooltips="1" connect="1" arrows="1" fold="1" page="1" pageScale="1" pageWidth="827" pageHeight="1169" math="0" shadow="0">
      <root>
        <mxCell id="0" />
        <mxCell id="1" parent="0" />
        <mxCell id="qCdlveyNcmzzgZWxZbQj-1" style="edgeStyle=orthogonalEdgeStyle;rounded=0;orthogonalLoop=1;jettySize=auto;html=1;shadow=0;shape=arrow;" edge="1" parent="1" source="qCdlveyNcmzzgZWxZbQj-2">
          <mxGeometry relative="1" as="geometry">
            <mxPoint x="480" y="700" as="targetPoint" />
          </mxGeometry>
        </mxCell>
        <mxCell id="qCdlveyNcmzzgZWxZbQj-2" value="" style="rounded=0;whiteSpace=wrap;html=1;" vertex="1" parent="1">
          <mxGeometry x="270" y="280" width="420" height="300" as="geometry" />
        </mxCell>
        <mxCell id="qCdlveyNcmzzgZWxZbQj-3" value="Package responsable RH" style="text;html=1;strokeColor=none;fillColor=none;align=center;verticalAlign=middle;whiteSpace=wrap;rounded=0;" vertex="1" parent="1">
          <mxGeometry x="360" y="290" width="220" height="30" as="geometry" />
        </mxCell>
        <mxCell id="qCdlveyNcmzzgZWxZbQj-4" value="" style="rounded=0;whiteSpace=wrap;html=1;" vertex="1" parent="1">
          <mxGeometry x="270" y="260" width="120" height="20" as="geometry" />
        </mxCell>
        <mxCell id="qCdlveyNcmzzgZWxZbQj-5" value="Responsable RH" style="shape=umlActor;verticalLabelPosition=bottom;verticalAlign=top;html=1;outlineConnect=0;" vertex="1" parent="1">
          <mxGeometry x="175" y="300" width="30" height="60" as="geometry" />
        </mxCell>
        <mxCell id="qCdlveyNcmzzgZWxZbQj-6" style="edgeStyle=orthogonalEdgeStyle;rounded=0;orthogonalLoop=1;jettySize=auto;html=1;" edge="1" parent="1" source="qCdlveyNcmzzgZWxZbQj-7">
          <mxGeometry relative="1" as="geometry">
            <mxPoint x="190" y="390" as="targetPoint" />
          </mxGeometry>
        </mxCell>
        <mxCell id="qCdlveyNcmzzgZWxZbQj-7" value="administrateur" style="shape=umlActor;verticalLabelPosition=bottom;verticalAlign=top;html=1;outlineConnect=0;" vertex="1" parent="1">
          <mxGeometry x="175" y="490" width="30" height="60" as="geometry" />
        </mxCell>
        <mxCell id="qCdlveyNcmzzgZWxZbQj-8" value="GÃ©rer les personnels" style="ellipse;whiteSpace=wrap;html=1;" vertex="1" parent="1">
          <mxGeometry x="340" y="400" width="310" height="80" as="geometry" />
        </mxCell>
        <mxCell id="qCdlveyNcmzzgZWxZbQj-9" value="&lt;span style=&quot;white-space: pre;&quot;&gt;&#x9;&lt;/span&gt;" style="rounded=0;whiteSpace=wrap;html=1;" vertex="1" parent="1">
          <mxGeometry x="280" y="700" width="420" height="140" as="geometry" />
        </mxCell>
        <mxCell id="qCdlveyNcmzzgZWxZbQj-10" value="" style="rounded=0;whiteSpace=wrap;html=1;" vertex="1" parent="1">
          <mxGeometry x="280" y="700" width="160" height="30" as="geometry" />
        </mxCell>
        <mxCell id="qCdlveyNcmzzgZWxZbQj-11" value="Package second rang" style="text;html=1;strokeColor=none;fillColor=none;align=center;verticalAlign=middle;whiteSpace=wrap;rounded=0;" vertex="1" parent="1">
          <mxGeometry x="280" y="700" width="140" height="30" as="geometry" />
        </mxCell>
        <mxCell id="qCdlveyNcmzzgZWxZbQj-12" value="S&#39;authentifier" style="ellipse;whiteSpace=wrap;html=1;" vertex="1" parent="1">
          <mxGeometry x="360" y="740" width="230" height="60" as="geometry" />
        </mxCell>
        <mxCell id="qCdlveyNcmzzgZWxZbQj-13" value="" style="endArrow=none;html=1;rounded=0;entryX=0;entryY=0.5;entryDx=0;entryDy=0;" edge="1" parent="1" target="qCdlveyNcmzzgZWxZbQj-8">
          <mxGeometry width="50" height="50" relative="1" as="geometry">
            <mxPoint x="240" y="360" as="sourcePoint" />
            <mxPoint x="330" y="420" as="targetPoint" />
          </mxGeometry>
        </mxCell>
      </root>
    </mxGraphModel>
  </diagram>
</mxfile>
